<?xml version="1.0" encoding="utf-8"?>
<!-- Generator: Adobe Illustrator 24.0.0, SVG Export Plug-In . SVG Version: 6.00 Build 0)  -->
<svg version="1.1" id="Capa_1" xmlns="http://www.w3.org/2000/svg" xmlns:xlink="http://www.w3.org/1999/xlink" x="0px" y="0px"
	 viewBox="0 0 62 62" style="enable-background:new 0 0 62 62;" xml:space="preserve">
<style type="text/css">
	.st0{fill:#00AAE7;}
	.st1{fill:#0F1D30;}
</style>
<g>
	<path class="st0" d="M51,59H30V46h21V59z M32,57h17v-9H32V57z"/>
	<polygon class="st0" points="44,58 42,58 42,55 39,55 39,58 37,58 37,53 44,53 	"/>
	<polygon class="st0" points="54.8,48 50,48 50,46 51.2,46 49.4,43 31.6,43 29.8,46 31,46 31,48 26.2,48 30.4,41 50.6,41 	"/>
	<rect x="45" y="29" class="st1" width="2" height="10"/>
	<path class="st1" d="M53,30H39c-0.3,0-0.6-0.2-0.8-0.4S38,29,38.1,28.7c0-0.1,2.5-7.4,3-10.8c0.1-0.5,0.5-0.9,1-0.9h8
		c0.5,0,0.9,0.4,1,0.9c0.5,3.5,2.9,10.7,3,10.8c0.1,0.3,0.1,0.6-0.1,0.9S53.3,30,53,30z M40.4,28h11.2c-0.7-2.1-1.9-6.2-2.5-9h-6.3
		C42.3,21.8,41.1,25.9,40.4,28z"/>
	<rect x="49" y="29" class="st1" width="2" height="4"/>
	<path class="st1" d="M27.5,52H18c-1.7,0-3-1.3-3-3h2c0,0.6,0.4,1,1,1h9.5V52z"/>
	<path class="st1" d="M17,47h-2c0-1.7,1.3-3,3-3h7v2h-7C17.4,46,17,46.4,17,47z"/>
	<path class="st1" d="M16,59h-5c-0.6,0-1-0.4-1-1V47.9c-1-1.1-2-2.6-2-4.4c0-1.3,0.6-2.5,1.5-3.3s2.2-1.3,3.4-1.1
		c2.3,0.3,4.1,2.3,4.1,4.6V58C17,58.6,16.6,59,16,59z M12,57h3V43.6c0-1.3-1-2.5-2.3-2.6c-0.6-0.1-1.3,0.2-1.8,0.6
		c-0.5,0.5-0.9,1.2-0.9,1.9c0,1,0.5,2,1.7,3.3c0.2,0.2,0.3,0.4,0.3,0.7V57z"/>
	<rect x="16" y="55" class="st1" width="11.5" height="2"/>
	<path class="st1" d="M13.1,40.4c0,0-0.6-4.8-0.9-6.9c-0.3-2.3,0.4-4.6,1.9-6.2c1.3-1.5,3.2-2.3,5.3-2.3h9.4c2.1,0,3.9,0.8,5.3,2.3
		c1.5,1.6,2.2,4,1.9,6.2c-0.1,0.6-0.2,1.5-0.3,2.5c-0.1,1.1-0.3,2.3-0.5,3.3l-2-0.3c0.2-1,0.3-2.1,0.4-3.2c0.1-1,0.3-1.9,0.4-2.5
		c0.2-1.6-0.4-3.4-1.4-4.6c-1-1.1-2.3-1.6-3.8-1.6h-9.4c-1.5,0-2.8,0.6-3.8,1.6c-1.1,1.2-1.6,3-1.4,4.6c0.3,2.1,0.9,6.9,0.9,6.9
		L13.1,40.4z"/>
</g>
</svg>
