<?xml version="1.0" encoding="UTF-8" standalone="no"?>
<svg
   xmlns:dc="http://purl.org/dc/elements/1.1/"
   xmlns:cc="http://creativecommons.org/ns#"
   xmlns:rdf="http://www.w3.org/1999/02/22-rdf-syntax-ns#"
   xmlns:svg="http://www.w3.org/2000/svg"
   xmlns="http://www.w3.org/2000/svg"
   viewBox="0 0 853.33331 853.33331"
   height="853.33331"
   width="853.33331"
   xml:space="preserve"
   id="svg2"
   version="1.1"><metadata
     id="metadata8"><rdf:RDF><cc:Work
         rdf:about=""><dc:format>image/svg+xml</dc:format><dc:type
           rdf:resource="http://purl.org/dc/dcmitype/StillImage" /></cc:Work></rdf:RDF></metadata><defs
     id="defs6" /><g
     transform="matrix(1.3333333,0,0,-1.3333333,0,853.33333)"
     id="g10"><g
       transform="scale(0.1)"
       id="g12"><path
         id="path14"
         style="fill:#0099df;fill-opacity:1;fill-rule:nonzero;stroke:none"
         d="m 835.359,4196.22 c -5.386,0 -10.879,1.1 -16.148,3.4 -20.293,8.94 -29.516,32.65 -20.566,52.93 10.82,24.54 22.007,48.88 33.511,72.97 9.574,20.03 33.496,28.46 53.535,18.92 20,-9.57 28.481,-33.53 18.911,-53.52 -11.172,-23.37 -21.997,-46.96 -32.461,-70.72 -6.621,-15.03 -21.328,-23.98 -36.782,-23.98 z m -78.062,-199.36 c -4.336,0 -8.711,0.7 -13.051,2.19 -20.976,7.22 -32.105,30.06 -24.898,51.02 11.757,34.16 24.414,68.5 37.539,102.07 8.101,20.61 31.367,30.81 52.008,22.73 20.648,-8.07 30.839,-31.36 22.738,-52.01 -12.695,-32.54 -24.961,-65.81 -36.352,-98.92 -5.718,-16.63 -21.304,-27.08 -37.984,-27.08 z M 672.102,3687.4 c -2.715,0 -5.493,0.27 -8.262,0.86 -21.684,4.53 -35.586,25.8 -31.035,47.52 14.785,70.65 32.715,141.55 53.3,210.73 6.344,21.23 28.653,33.38 49.958,27.01 21.234,-6.32 33.339,-28.7 26.996,-49.95 -19.985,-67.04 -37.344,-135.75 -51.704,-204.25 -3.945,-18.93 -20.64,-31.92 -39.253,-31.92 z m -54.789,-531.53 c -22.168,0 -40.133,17.99 -40.133,40.15 0,145.15 11.953,290.82 35.523,432.89 3.676,21.85 24.399,36.62 46.192,33.01 21.875,-3.63 36.664,-24.3 33.046,-46.18 -22.871,-137.74 -34.468,-278.95 -34.468,-419.72 0,-22.16 -17.993,-40.15 -40.16,-40.15" /><path
         id="path16"
         style="fill:#0099df;fill-opacity:1;fill-rule:nonzero;stroke:none"
         d="M 3200.01,575.191 C 1753.76,575.191 577.18,1750 577.18,3200 h 80.293 c 0,-1390 1140.587,-2544.531 2542.537,-2544.531 699.24,0 1350.98,277.031 1835.18,781.851 l 57.94,-55.08 C 4593.66,861.469 3921.32,575.191 3200.01,575.191" /><path
         id="path18"
         style="fill:#003049;fill-opacity:1;fill-rule:nonzero;stroke:none"
         d="m 4872.59,1498.45 379.08,128.63 -78.07,-392.62 z" /><path
         id="path20"
         style="fill:#0099df;fill-opacity:1;fill-rule:nonzero;stroke:none"
         d="m 5747.71,2729.56 c -2.17,0 -4.4,0.19 -6.61,0.55 -21.89,3.64 -36.68,24.3 -33.04,46.18 22.87,137.74 34.47,278.95 34.47,419.73 0,22.16 17.99,40.14 40.16,40.14 22.14,0 40.13,-17.98 40.13,-40.14 0,-145.16 -11.97,-290.82 -35.54,-432.9 -3.27,-19.62 -20.28,-33.56 -39.57,-33.56 z m -72.29,-312.71 c -3.79,0 -7.64,0.51 -11.48,1.67 -21.25,6.32 -33.34,28.7 -27,49.95 19.96,67.03 37.35,135.74 51.7,204.24 4.51,21.67 25.82,35.68 47.52,31.06 21.7,-4.52 35.59,-25.8 31.06,-47.52 -14.81,-70.64 -32.74,-141.55 -53.32,-210.73 -5.22,-17.41 -21.18,-28.67 -38.48,-28.67 z m -69.75,-202.47 c -4.88,0 -9.82,0.89 -14.63,2.79 -20.64,8.09 -30.83,31.38 -22.73,52.03 12.7,32.41 24.96,65.7 36.39,98.9 7.2,20.98 30.04,32.11 51.01,24.88 20.96,-7.22 32.11,-30.05 24.91,-51.02 -11.8,-34.26 -24.44,-68.6 -37.56,-102.09 -6.21,-15.81 -21.35,-25.49 -37.39,-25.49 z m -68.94,-159.79 c -5.72,0 -11.54,1.23 -17.09,3.85 -20.04,9.43 -28.63,33.38 -19.18,53.42 9.35,19.86 18.5,39.86 27.38,60.01 8.95,20.25 32.64,29.43 52.93,20.57 20.27,-8.94 29.49,-32.65 20.55,-52.93 -9.14,-20.78 -18.58,-41.39 -28.22,-61.89 -6.86,-14.52 -21.31,-23.03 -36.37,-23.03" /><path
         id="path22"
         style="fill:#0099df;fill-opacity:1;fill-rule:nonzero;stroke:none"
         d="m 5822.82,3200 h -80.29 c 0,1420 -1140.59,2540.54 -2542.52,2540.54 -698.38,0 -1349.53,-278.36 -1833.52,-782.03 l -57.93,55.1 c 499.32,519.6 1171.02,807.47 1891.45,807.47 1446.21,0 2622.81,-1181.08 2622.81,-2621.08" /><path
         id="path24"
         style="fill:#003049;fill-opacity:1;fill-rule:nonzero;stroke:none"
         d="m 1528.99,4895.19 -379.18,-128.28 78.46,392.54 z" /><path
         id="path26"
         style="fill:#003049;fill-opacity:1;fill-rule:nonzero;stroke:none"
         d="m 2830.4,2696.71 15.08,16.31 c 10.43,10.48 20.84,21.01 32.05,30.63 10.82,10.06 22.58,19.03 34.12,28.15 11.93,8.7 23.77,17.44 36.29,25.17 12.13,8.31 25.14,15.13 37.79,22.55 13.13,6.52 25.9,13.72 39.36,19.4 l 20.06,8.8 c 6.72,2.83 13.61,5.23 20.41,7.85 13.51,5.46 27.44,9.62 41.25,14.06 13.79,4.54 28,7.61 41.93,11.47 14.1,3.32 28.28,6.02 42.4,9.02 l 0.49,0.12 0.78,0.11 c 14.06,1.92 30.59,6.25 45.65,11.24 15.33,5.1 30.47,11.11 45.17,18.2 14.81,6.89 29.16,14.81 43.11,23.38 13.9,8.7 27.56,17.88 40.45,28.07 6.66,4.92 13.02,10.15 19.22,15.56 6.38,5.22 12.46,10.79 18.43,16.49 6.12,5.59 12.03,11.34 17.7,17.4 5.76,5.94 11.56,11.87 16.89,18.2 11.14,12.27 21.31,25.43 31.51,38.57 9.67,13.55 19.41,27.02 28.08,41.3 9.32,13.85 16.96,28.75 25.26,43.23 7.44,15 15.52,29.69 22.03,45.16 3.38,7.65 6.93,15.26 10.17,23 l 9.2,23.41 c 6.49,15.53 11.16,31.71 16.78,47.55 5.22,16.02 9.55,32.28 14.4,48.43 l 11.99,49.11 9.92,49.63 8.07,50.03 c 0,0 -151.27,-131.7 -398.75,-159.28 -489.36,-54.49 -495.77,-419.96 -495.77,-419.96 -3.22,-116.2 20.49,-205.32 58.03,-273.75 8.2,11.87 17.01,23.32 26.08,34.46 4.78,5.64 9.47,11.38 14.37,16.93" /><path
         id="path28"
         style="fill:#003049;fill-opacity:1;fill-rule:nonzero;stroke:none"
         d="m 3626.44,3498.31 -5.9,-50.34 -7.85,-50.18 -9.91,-49.81 c -4.12,-16.42 -7.81,-32.99 -12.36,-49.35 -4.96,-16.21 -9.04,-32.78 -14.9,-48.73 l -8.3,-24.11 c -2.93,-7.98 -6.21,-15.84 -9.32,-23.76 -5.94,-15.99 -13.48,-31.32 -20.43,-46.88 -7.81,-15.17 -15.04,-30.73 -23.93,-45.36 -8.28,-14.98 -17.67,-29.32 -27.03,-43.7 -9.94,-13.98 -19.86,-28.04 -30.91,-41.27 -5.28,-6.84 -11.02,-13.25 -16.74,-19.67 -5.63,-6.57 -11.53,-12.84 -17.64,-18.96 -5.98,-6.22 -12.13,-12.3 -18.55,-18.08 -6.29,-5.96 -12.76,-11.73 -19.48,-17.2 -13.14,-11.32 -27.16,-21.63 -41.48,-31.47 -14.43,-9.74 -29.32,-18.82 -44.84,-26.92 -15.43,-8.2 -31.43,-15.44 -47.9,-21.69 -16.77,-6.22 -32.81,-11.5 -52.1,-15 l 1.25,0.21 c -13.36,-3.51 -26.8,-6.64 -40.04,-10.36 -13.13,-4.28 -26.45,-7.73 -39.32,-12.58 -12.85,-4.79 -25.84,-9.23 -38.32,-14.91 -6.25,-2.77 -12.58,-5.28 -18.81,-8.18 l -18.36,-9.07 c -12.32,-5.8 -23.9,-13.04 -35.8,-19.57 -11.39,-7.4 -23.18,-14.2 -34.02,-22.35 -11.23,-7.58 -21.74,-16.1 -32.31,-24.52 -10.19,-8.84 -20.62,-17.46 -30.08,-27.08 -9.86,-9.2 -18.9,-19.18 -27.96,-29.11 l -13.05,-15.37 c -4.24,-5.23 -8.22,-10.64 -12.36,-15.92 -8.03,-10.79 -15.75,-21.74 -22.88,-33.11 -4.12,-6.4 -7.98,-12.91 -11.79,-19.5 122.99,-161.05 326.48,-173.44 326.48,-173.44 464.96,6.23 494.03,419.49 494.03,419.49 39.72,323.72 -17.09,657.85 -17.09,657.85" /><path
         id="path30"
         style="fill:#0099df;fill-opacity:1;fill-rule:nonzero;stroke:none"
         d="m 2842.47,2623.01 c -8.51,-12.13 -16.54,-24.62 -24,-37.43 -7.64,-12.76 -14.59,-25.9 -21.16,-39.23 -6.56,-13.36 -12.55,-26.98 -18.1,-40.8 -5.55,-13.85 -10.43,-28.02 -14.84,-42.4 -4.4,-14.63 -8.19,-28.53 -11.1,-45.16 -0.1,-0.47 -0.17,-1.02 -0.23,-1.47 -2.27,-17.51 10.11,-33.52 27.63,-35.8 17.5,-2.24 33.52,10.14 35.8,27.66 l 0.04,0.58 c 1.47,11.23 4.38,24.82 7.6,37.37 3.34,12.75 7.15,25.51 11.58,38.1 4.38,12.6 9.24,25.04 14.65,37.27 5.39,12.26 11.13,24.36 17.52,36.17 2.7,5.13 5.55,10.2 8.42,15.22 -11.88,15.54 -22.95,32.51 -33.07,50.93 -0.23,-0.34 -0.5,-0.65 -0.74,-1.01" /><path
         id="path32"
         style="fill:#003049;fill-opacity:1;fill-rule:nonzero;stroke:none"
         d="m 4276.1,3776.08 c 0,-74.17 -48.53,-126.08 -134.57,-126.08 h -1936.6 c -86.03,0 -168.83,51.91 -168.83,126.08 v 8.29 c 0,74.15 82.8,135.63 168.83,135.63 h 1936.6 c 86.04,0 134.57,-61.48 134.57,-135.63 v -8.29" /><path
         id="path34"
         style="fill:#0099df;fill-opacity:1;fill-rule:nonzero;stroke:none"
         d="m 3180.81,2050 h -7.58 c -297.6,0 -535.74,97.04 -707.89,293.22 -215.35,245.36 -285.39,598.66 -306.23,852.81 -22.36,273.07 4.85,485.47 6.02,494.41 l 79.61,-10.71 c -1.1,-8.41 -105.12,-848.91 281.11,-1288.7 C 2682.06,2213.09 2899.87,2120 3173.23,2120 h 7.58 c 272.21,0 489.38,92.83 645.43,270.5 388.95,442.74 284.16,1289.82 283.07,1298.32 l 79.61,11.02 c 1.17,-9.01 28.45,-223.8 5.87,-499.34 -21.01,-256.47 -91.56,-611.35 -308.22,-858 C 3714.6,2146.69 3477.16,2050 3180.81,2050" /><path
         id="path36"
         style="fill:#003049;fill-opacity:1;fill-rule:nonzero;stroke:none"
         d="m 3504.01,1601.6 c -98.38,-0.03 -179.63,28.15 -242.57,84.24 -148.95,132.7 -131.59,370.43 -130.77,380.49 2.39,29.45 28.44,51.43 57.66,49.03 29.45,-2.38 51.39,-28.12 49.04,-57.56 -0.15,-2.58 -13.4,-195.62 95.61,-292.32 61.23,-54.35 153.32,-69.79 273.69,-45.87 29.04,5.82 57.15,-13.13 62.93,-42.11 5.74,-28.98 -13.11,-57.16 -42.11,-62.91 -43.71,-8.67 -84.92,-12.99 -123.48,-12.99" /><path
         id="path38"
         style="fill:#003049;fill-opacity:1;fill-rule:nonzero;stroke:none"
         d="m 2886.1,3830.03 c 0,-81.3 -63.73,-147.2 -145,-147.2 v 0 c -81.29,0 -145,65.9 -145,147.2 v 722.62 c 0,81.3 63.71,147.19 145,147.19 v 0 c 81.27,0 145,-65.89 145,-147.19 v -722.62" /><path
         id="path40"
         style="fill:#003049;fill-opacity:1;fill-rule:nonzero;stroke:none"
         d="m 3666.1,3860.72 c 0,-81.3 -61.81,-150.72 -143.1,-150.72 h -5.59 c -81.31,0 -151.31,69.42 -151.31,150.72 v 725.6 c 0,81.3 70,143.68 151.31,143.68 h 5.59 c 81.29,0 143.1,-62.38 143.1,-143.68 v -725.6" /></g></g></svg>