<?xml version="1.0" encoding="utf-8"?>
<!-- Generator: Adobe Illustrator 24.0.0, SVG Export Plug-In . SVG Version: 6.00 Build 0)  -->
<svg version="1.1" id="Capa_1" xmlns="http://www.w3.org/2000/svg" xmlns:xlink="http://www.w3.org/1999/xlink" x="0px" y="0px"
	 viewBox="0 0 62 62" style="enable-background:new 0 0 62 62;" xml:space="preserve">
<style type="text/css">
	.st0{fill:#0F1D30;}
	.st1{fill:#00AAE7;}
</style>
<g>
	<g>
		<path class="st0" d="M31,59c-10.5,0-19-8.5-19-19s8.5-19,19-19s19,8.5,19,19S41.5,59,31,59z M31,23c-9.4,0-17,7.6-17,17
			s7.6,17,17,17s17-7.6,17-17S40.4,23,31,23z"/>
		<path class="st1" d="M24.2,40.4l-0.4-0.2c-0.6-0.3-6.2-3-6.2-6.9c0-2.3,1.9-4.2,4.2-4.2c0.8,0,1.6,0.3,2.4,0.8
			c0.7-0.5,1.6-0.8,2.4-0.8c1.2,0,2.3,0.5,3.1,1.3c0.8,0.8,1.2,1.8,1.1,2.9c0,4.3-6,6.8-6.2,6.9L24.2,40.4z M21.8,31.1
			c-1.2,0-2.2,1-2.2,2.2c0,2.1,3.1,4.1,4.6,4.9c1.6-0.7,4.6-2.6,4.6-4.9c0-0.6-0.2-1.1-0.5-1.5c-0.9-0.9-2.5-0.9-3.3,0l-0.7,0.8
			l-0.8-0.8C23,31.4,22.4,31.1,21.8,31.1z"/>
		<path class="st1" d="M38.3,40.4l-0.4-0.2c-0.6-0.3-6.2-3-6.2-6.9c0-2.3,1.9-4.2,4.2-4.2c0.8,0,1.6,0.3,2.4,0.8
			c0.7-0.5,1.6-0.8,2.4-0.8c2.3,0,4.2,1.9,4.2,4.2c0,4.3-6,6.8-6.2,6.9L38.3,40.4z M35.9,31.1c-1.2,0-2.2,1-2.2,2.2
			c0,2.1,3,4.1,4.6,4.9c1.6-0.7,4.6-2.6,4.6-4.9c0-1.2-1-2.2-2.2-2.2c-0.6,0-1.2,0.3-1.6,0.8l-0.7,0.8l-0.8-0.8
			C37.1,31.4,36.5,31.1,35.9,31.1z"/>
	</g>
	<path class="st0" d="M31,53.7c-6,0-11.4-4-13.2-9.7c-0.2-0.5,0.1-1.1,0.7-1.2c0.5-0.2,1.1,0.1,1.2,0.7c1.5,4.9,6.1,8.3,11.2,8.3
		c5.2,0,9.7-3.3,11.2-8.3c0.2-0.5,0.7-0.8,1.2-0.7c0.5,0.2,0.8,0.7,0.7,1.2C42.4,49.8,37.1,53.7,31,53.7z"/>
</g>
</svg>
