<?xml version="1.0" encoding="utf-8"?>
<!-- Generator: Adobe Illustrator 24.0.0, SVG Export Plug-In . SVG Version: 6.00 Build 0)  -->
<svg version="1.1" id="Capa_1" xmlns="http://www.w3.org/2000/svg" xmlns:xlink="http://www.w3.org/1999/xlink" x="0px" y="0px"
	 viewBox="0 0 62 62" style="enable-background:new 0 0 62 62;" xml:space="preserve">
<style type="text/css">
	.st0{fill:#00AAE7;}
	.st1{fill:#0F1D30;}
</style>
<g>
	<rect x="30" y="44.9" class="st0" width="2" height="13"/>
	<polygon class="st0" points="31,59 11,50.6 11,36.2 24.6,30.5 25.4,32.3 13,37.6 13,49.2 31,56.8 49,49.2 49,37.6 36.6,32.3 
		37.4,30.5 51,36.2 51,50.6 	"/>
	<polygon class="st0" points="31,46 11.6,37.8 12.4,36 31,43.8 49.6,36 50.4,37.8 	"/>
	<path class="st1" d="M31,37.9c-0.4,0-0.8-0.3-1-0.7c-1-3.2-2.9-5.3-4.7-7.3c-2.3-2.5-4.4-4.9-4.4-9c0-5.3,4.7-10,10-10
		s10,4.7,10,10c0,4.1-2.1,6.5-4.4,9c-1.8,2-3.7,4.1-4.7,7.3C31.8,37.6,31.4,37.9,31,37.9z M31,12.9c-4.2,0-8,3.8-8,8
		c0,3.4,1.8,5.3,3.9,7.7c1.4,1.6,3,3.3,4.1,5.6c1.2-2.3,2.7-4.1,4.1-5.6c2.1-2.3,3.9-4.3,3.9-7.7C39,16.7,35.2,12.9,31,12.9z"/>
	<path class="st1" d="M31,24.9c-2.2,0-4-1.8-4-4s1.8-4,4-4s4,1.8,4,4S33.2,24.9,31,24.9z M31,18.9c-1.1,0-2,0.9-2,2s0.9,2,2,2
		c1.1,0,2-0.9,2-2S32.1,18.9,31,18.9z"/>
	<rect x="45" y="45.9" class="st0" width="2" height="2"/>
	<rect x="42" y="46.9" class="st0" width="2" height="2"/>
</g>
</svg>
