<?xml version="1.0" encoding="utf-8"?>
<!-- Generator: Adobe Illustrator 24.0.0, SVG Export Plug-In . SVG Version: 6.00 Build 0)  -->
<svg version="1.1" id="Capa_1" xmlns="http://www.w3.org/2000/svg" xmlns:xlink="http://www.w3.org/1999/xlink" x="0px" y="0px"
	 viewBox="0 0 62 62" style="enable-background:new 0 0 62 62;" xml:space="preserve">
<style type="text/css">
	.st0{fill:#0F1D30;}
	.st1{fill:#00AAE7;}
</style>
<g>
	<path class="st0" d="M31,59c-0.1,0-0.2,0-0.3,0C29.7,58.7,11,48.7,11,39V20c0-0.6,0.4-1,1-1c4.6,0,16.6-5.3,18.2-7.6
		c0.2-0.2,0.5-0.4,0.8-0.4s0.6,0.1,0.8,0.4c1.7,2.3,13,7.6,18.2,7.6c0.6,0,1,0.4,1,1v20c0,8.2-18.8,18.7-19.7,19
		C31.2,59,31.1,59,31,59z M13,20.9V39c0,7.7,15.5,16.7,18,17.9c2.6-1.3,18-10.7,18-16.9V20.9c-5.3-0.5-14.7-4.7-18-7.5
		C27.7,16.3,18,20.4,13,20.9z"/>
	<rect x="30" y="34" class="st1" width="2" height="12"/>
	<path class="st1" d="M31,47c-0.1,0-0.3,0-0.4-0.1l-12-5C18.2,41.8,18,41.4,18,41V29h2v11.3l11,4.6l11-4.6V29h2v12
		c0,0.4-0.2,0.8-0.6,0.9l-12,5C31.3,47,31.1,47,31,47z"/>
	<path class="st1" d="M31,35c-0.1,0-0.3,0-0.4-0.1l-12-5C18.2,29.8,18,29.4,18,29v-1c0-0.4,0.2-0.8,0.6-0.9l12-5
		c0.2-0.1,0.5-0.1,0.8,0l12,5c0.4,0.2,0.6,0.5,0.6,0.9v1c0,0.4-0.2,0.8-0.6,0.9l-12,5C31.3,35,31.1,35,31,35z M20.4,28.5L31,32.9
		l10.6-4.4L31,24.1L20.4,28.5z"/>
	<rect x="30.5" y="21.2" transform="matrix(0.3956 -0.9184 0.9184 0.3956 -6.9543 46.033)" class="st1" width="2" height="14.2"/>
</g>
</svg>
