<?xml version="1.0" encoding="utf-8"?>
<!-- Generator: Adobe Illustrator 24.0.0, SVG Export Plug-In . SVG Version: 6.00 Build 0)  -->
<svg version="1.1" id="Capa_1" xmlns="http://www.w3.org/2000/svg" xmlns:xlink="http://www.w3.org/1999/xlink" x="0px" y="0px"
	 viewBox="0 0 62 62" style="enable-background:new 0 0 62 62;" xml:space="preserve">
<style type="text/css">
	.st0{fill:#0F1D30;}
	.st1{fill:#00AAE7;}
</style>
<g>
	<rect x="47" y="34" class="st0" width="2" height="5"/>
	<rect x="50" y="34" class="st0" width="2" height="5"/>
	<path class="st0" d="M49.5,59c-2.3,0-3.5-1-3.5-3l0.9-10.6c0-0.4-0.2-0.8-0.5-0.9c-1.5-0.7-2.4-2-2.4-3.5v-7h2v7
		c0,0.8,0.4,1.3,1.2,1.7c1.1,0.5,1.8,1.7,1.7,2.9L48,56.1c0,0.5,0,0.9,1.5,0.9s1.5-0.4,1.5-1l-0.9-10.4c-0.1-1.2,0.6-2.4,1.7-2.9
		c0.8-0.4,1.2-0.9,1.2-1.7v-7h2v7c0,1.6-0.9,2.8-2.4,3.5c-0.3,0.1-0.6,0.5-0.5,0.9L53,55.9C53,58,51.8,59,49.5,59z"/>
	<path class="st0" d="M39,59c-1.7,0-3-1.3-3-3v-7.6l-1.7-1.7c-0.2-0.2-0.3-0.6-0.3-0.9c0,0,0.8-4.2,1.1-6.3c0.6-3.6,3-5.5,4.9-5.5
		c1.3,0,2,1,2,2v20C42,57.7,40.7,59,39,59z M36.1,45.7l1.6,1.6c0.2,0.2,0.3,0.4,0.3,0.7v8c0,0.5,0.4,1,1,1s1-0.5,1-1V36
		c-0.9,0-2.5,1.3-2.9,3.8C36.8,41.5,36.3,44.5,36.1,45.7z"/>
	<path class="st1" d="M27,33c-0.1,0-0.3,0-0.4-0.1l-19-9C7.2,23.7,7,23.4,7,23s0.2-0.7,0.6-0.9l19-9c0.3-0.1,0.6-0.1,0.9,0l19,9
		c0.3,0.2,0.6,0.5,0.6,0.9s-0.2,0.7-0.6,0.9l-19,9C27.3,33,27.1,33,27,33z M10.3,23L27,30.9L43.7,23L27,15.1L10.3,23z"/>
	<rect x="15.7" y="21.6" transform="matrix(0.9037 -0.4282 0.4282 0.9037 -7.1534 13.3956)" class="st1" width="21" height="2"/>
	<rect x="26" y="32" class="st1" width="2" height="20"/>
	<rect x="45" y="23" class="st1" width="2" height="8"/>
	<polygon class="st1" points="27,53.1 7,43.6 7,23 9,23 9,42.4 27,50.9 31.6,48.7 32.4,50.5 	"/>
</g>
</svg>
