<?xml version="1.0" encoding="utf-8"?>
<!-- Generator: Adobe Illustrator 24.0.0, SVG Export Plug-In . SVG Version: 6.00 Build 0)  -->
<svg version="1.1" id="Capa_1" xmlns="http://www.w3.org/2000/svg" xmlns:xlink="http://www.w3.org/1999/xlink" x="0px" y="0px"
	 viewBox="0 0 62 62" style="enable-background:new 0 0 62 62;" xml:space="preserve">
<style type="text/css">
	.st0{fill:#00AAE7;}
	.st1{fill:#0F1D30;}
</style>
<g>
	<path class="st0" d="M35.2,46.9c-0.3,0-0.5-0.1-0.7-0.3l-3.8-4c-0.4-0.4-0.4-1,0-1.4s1-0.4,1.4,0l3,3.1l5.9-7.9
		c0.3-0.4,1-0.5,1.4-0.2c0.4,0.3,0.5,1,0.2,1.4L36,46.5C35.8,46.7,35.6,46.9,35.2,46.9L35.2,46.9z"/>
	<path class="st1" d="M49.2,34.2l-1.5-1.3l1.3-1.5l-3.4-3.2l-1.3,1.4l-1.5-1.4l1.6-1.7c0.3-0.4,0.7-0.6,1.2-0.6l0,0
		c0.5,0,0.9,0.2,1.2,0.6l3.8,3.6c0.4,0.3,0.6,0.7,0.6,1.2s-0.2,0.9-0.5,1.2L49.2,34.2z"/>
	<rect x="34.6" y="21" class="st1" width="2" height="5.8"/>
	<rect x="24.3" y="41.6" class="st1" width="1.7" height="2"/>
	<rect x="34.6" y="52.2" class="st1" width="2" height="1.7"/>
	<rect x="45.1" y="41.6" class="st1" width="1.7" height="2"/>
	<rect x="34.6" y="31.3" class="st1" width="2" height="1.8"/>
	<rect x="31.4" y="20" class="st1" width="8.3" height="2"/>
	<path class="st1" d="M35.6,55.9c-7.3,0-13.3-6-13.3-13.3c0-2.3,0.5-4.4,1.6-6.4c2.4-4.3,6.8-6.9,11.7-6.9c7.3,0,13.3,6,13.3,13.3
		C48.9,49.9,42.9,55.9,35.6,55.9z M35.6,31.3c-4.1,0-7.9,2.3-9.9,5.9c-0.9,1.6-1.4,3.5-1.4,5.4c0,6.2,5.1,11.3,11.3,11.3
		s11.3-5.1,11.3-11.3C46.9,36.4,41.8,31.3,35.6,31.3z"/>
	<path class="st0" d="M20.2,43.6h-9.1c-0.6,0-1-0.4-1-1s0.4-1,1-1h9.1c0.6,0,1,0.4,1,1S20.8,43.6,20.2,43.6z"/>
	<path class="st0" d="M20.8,48.1h-7.4c-0.6,0-1-0.4-1-1s0.4-1,1-1h7.4c0.6,0,1,0.4,1,1S21.4,48.1,20.8,48.1z"/>
	<path class="st0" d="M23.1,52.6h-5.6c-0.6,0-1-0.4-1-1s0.4-1,1-1h5.6c0.6,0,1,0.4,1,1S23.7,52.6,23.1,52.6z"/>
	<path class="st0" d="M35.5,59c-5.3,0-10.2-2.5-13.3-6.8c-0.3-0.4-0.2-1.1,0.2-1.4c0.4-0.3,1.1-0.2,1.4,0.2c2.7,3.7,7.1,6,11.7,6
		c7.9,0,14.4-6.5,14.4-14.4s-6.5-14.4-14.4-14.4c-4.6,0-9,2.3-11.7,6.1c-0.3,0.4-0.9,0.6-1.4,0.2c-0.4-0.3-0.6-0.9-0.2-1.4
		c3.1-4.3,8.1-6.9,13.3-6.9c9,0,16.4,7.4,16.4,16.4S44.5,59,35.5,59z"/>
	<path class="st0" d="M23.1,34.7h-6.7c-0.6,0-1-0.4-1-1s0.4-1,1-1h6.7c0.6,0,1,0.4,1,1S23.7,34.7,23.1,34.7z"/>
	<path class="st0" d="M20.9,39.1h-7.5c-0.6,0-1-0.4-1-1c0-0.6,0.4-1,1-1h7.5c0.6,0,1,0.4,1,1C21.9,38.7,21.5,39.1,20.9,39.1z"/>
</g>
</svg>
