<?xml version="1.0" encoding="utf-8"?>
<!-- Generator: Adobe Illustrator 24.0.0, SVG Export Plug-In . SVG Version: 6.00 Build 0)  -->
<svg version="1.1" id="Capa_1" xmlns="http://www.w3.org/2000/svg" xmlns:xlink="http://www.w3.org/1999/xlink" x="0px" y="0px"
	 viewBox="0 0 62 62" style="enable-background:new 0 0 62 62;" xml:space="preserve">
<style type="text/css">
	.st0{fill:#0F1D30;}
	.st1{fill:#00AAE7;}
</style>
<g>
	<rect x="30" y="34" class="st0" width="2" height="25"/>
	<path class="st0" d="M31,60.1L9,51.7V25.3l22-8.4l22,8.4v26.4L31,60.1z M11,50.3l20,7.6l20-7.6V26.7l-20-7.6l-20,7.6V50.3z"/>
	<polygon class="st0" points="31,35.1 9.6,26.9 10.4,25.1 31,32.9 51.6,25.1 52.4,26.9 	"/>
	<rect x="29.7" y="14.9" transform="matrix(0.356 -0.9345 0.9345 0.356 -4.609 45.5224)" class="st0" width="2" height="22.5"/>
	<path class="st1" d="M17,41.8c-0.3,0-0.6-0.1-0.8-0.4l-1.5-2l-1.2,0.7c-0.5,0.3-1.1,0.1-1.4-0.3c-0.3-0.5-0.1-1.1,0.3-1.4l2.8-1.7
		l2.5,3.5c0.3,0.4,0.2,1.1-0.2,1.4C17.4,41.7,17.2,41.8,17,41.8z"/>
	<path class="st1" d="M15,45c-0.6,0-1-0.4-1-1v-5c0-0.6,0.4-1,1-1s1,0.4,1,1v5C16,44.6,15.6,45,15,45z"/>
	<path class="st1" d="M23,44.2c-0.3,0-0.6-0.1-0.8-0.4l-1.5-2l-1.2,0.7c-0.5,0.3-1.1,0.1-1.4-0.3c-0.3-0.5-0.1-1.1,0.3-1.4l2.8-1.7
		l2.5,3.5c0.3,0.4,0.2,1.1-0.2,1.4C23.4,44.1,23.2,44.2,23,44.2z"/>
	<path class="st1" d="M21,47c-0.6,0-1-0.4-1-1v-5c0-0.6,0.4-1,1-1s1,0.4,1,1v5C22,46.6,21.6,47,21,47z"/>
	<path class="st1" d="M23,52.2c-0.1,0-0.2,0-0.4-0.1l-10-3.9c-0.5-0.2-0.8-0.8-0.6-1.3s0.8-0.8,1.3-0.6l10,3.9
		c0.5,0.2,0.8,0.8,0.6,1.3C23.8,51.9,23.4,52.2,23,52.2z"/>
</g>
</svg>
