<?xml version="1.0" encoding="utf-8"?>
<!-- Generator: Adobe Illustrator 24.0.0, SVG Export Plug-In . SVG Version: 6.00 Build 0)  -->
<svg version="1.1" id="Capa_1" xmlns="http://www.w3.org/2000/svg" xmlns:xlink="http://www.w3.org/1999/xlink" x="0px" y="0px"
	 viewBox="0 0 62 62" style="enable-background:new 0 0 62 62;" xml:space="preserve">
<style type="text/css">
	.st0{fill:#0F1D30;}
	.st1{fill:#00AAE7;}
</style>
<g id="calendar_00000160190656353400141050000011320848144224174209_">
	<path class="st0" d="M24.1,39.2c-0.9,0-1.7-0.8-1.7-1.7s0.8-1.7,1.7-1.7s1.7,0.8,1.7,1.7S25,39.2,24.1,39.2z M24.1,37.2
		c-0.2,0-0.3,0.1-0.3,0.3s0.1,0.3,0.3,0.3c0.2,0,0.3-0.1,0.3-0.3S24.2,37.2,24.1,37.2z"/>
	<path class="st0" d="M31,39.2c-0.9,0-1.7-0.8-1.7-1.7s0.8-1.7,1.7-1.7s1.7,0.8,1.7,1.7S31.9,39.2,31,39.2z M31,37.2
		c-0.2,0-0.3,0.1-0.3,0.3s0.1,0.3,0.3,0.3s0.3-0.1,0.3-0.3S31.2,37.2,31,37.2z"/>
	<path class="st0" d="M37.9,39.2c-0.9,0-1.7-0.8-1.7-1.7s0.8-1.7,1.7-1.7s1.7,0.8,1.7,1.7S38.9,39.2,37.9,39.2z M37.9,37.2
		c-0.2,0-0.3,0.1-0.3,0.3s0.1,0.3,0.3,0.3s0.3-0.1,0.3-0.3S38.1,37.2,37.9,37.2z"/>
	<path class="st0" d="M44.8,39.2c-0.9,0-1.7-0.8-1.7-1.7s0.8-1.7,1.7-1.7c0.9,0,1.7,0.8,1.7,1.7S45.8,39.2,44.8,39.2z M44.8,37.2
		c-0.2,0-0.3,0.1-0.3,0.3s0.1,0.3,0.3,0.3s0.3-0.1,0.3-0.3S45,37.2,44.8,37.2z"/>
	<path class="st0" d="M19.2,29.5c-1.3,0-2.4-1.1-2.4-2.4v-2.8c0-1.3,1.1-2.4,2.4-2.4c1.3,0,2.4,1.1,2.4,2.4v2.8
		C21.6,28.5,20.5,29.5,19.2,29.5z M19.2,24c-0.2,0-0.4,0.2-0.4,0.4v2.8c0,0.2,0.2,0.4,0.4,0.4c0.2,0,0.4-0.2,0.4-0.4v-2.8
		C19.6,24.2,19.4,24,19.2,24z"/>
	<path class="st0" d="M42.8,29.5c-1.3,0-2.4-1.1-2.4-2.4v-2.8c0-1.3,1.1-2.4,2.4-2.4s2.4,1.1,2.4,2.4v2.8
		C45.2,28.5,44.1,29.5,42.8,29.5z M42.8,24c-0.2,0-0.4,0.2-0.4,0.4v2.8c0,0.2,0.2,0.4,0.4,0.4s0.4-0.2,0.4-0.4v-2.8
		C43.2,24.2,43,24,42.8,24z"/>
	<path class="st1" d="M53.5,32h-2v-4.2c0-0.3,0-1.1-1.8-1.1h-2.8v-2h2.8c2.4,0,3.8,1.2,3.8,3.1V32z"/>
	<rect x="23.4" y="24.8" class="st1" width="15.2" height="2"/>
	<path class="st1" d="M10.5,32h-2v-3.5c0-2.1,1.7-3.8,3.8-3.8h2.8v2h-2.8c-1,0-1.8,0.8-1.8,1.8V32z"/>
	<polygon class="st0" points="45.3,60 8.5,60 8.5,31.3 10.5,31.3 10.5,58 44.4,58 51.5,51 51.5,31.3 53.5,31.3 53.5,51.8 	"/>
	<rect x="8.5" y="30.3" class="st1" width="44.9" height="2"/>
	<path class="st0" d="M31,46.8c-0.9,0-1.7-0.8-1.7-1.7s0.8-1.7,1.7-1.7s1.7,0.8,1.7,1.7S31.9,46.8,31,46.8z M31,44.8
		c-0.2,0-0.3,0.1-0.3,0.3s0.1,0.3,0.3,0.3s0.3-0.1,0.3-0.3S31.2,44.8,31,44.8z"/>
	<path class="st0" d="M37.9,46.8c-0.9,0-1.7-0.8-1.7-1.7s0.8-1.7,1.7-1.7s1.7,0.8,1.7,1.7S38.9,46.8,37.9,46.8z M37.9,44.8
		c-0.2,0-0.3,0.1-0.3,0.3s0.1,0.3,0.3,0.3s0.3-0.1,0.3-0.3S38.1,44.8,37.9,44.8z"/>
	<path class="st0" d="M31,54.5c-0.9,0-1.7-0.8-1.7-1.7c0-0.9,0.8-1.7,1.7-1.7s1.7,0.8,1.7,1.7C32.7,53.7,31.9,54.5,31,54.5z
		 M31,52.5c-0.2,0-0.3,0.1-0.3,0.3s0.1,0.3,0.3,0.3s0.3-0.1,0.3-0.3S31.2,52.5,31,52.5z"/>
	<path class="st0" d="M37.9,54.5c-0.9,0-1.7-0.8-1.7-1.7c0-0.9,0.8-1.7,1.7-1.7s1.7,0.8,1.7,1.7C39.6,53.7,38.9,54.5,37.9,54.5z
		 M37.9,52.5c-0.2,0-0.3,0.1-0.3,0.3s0.1,0.3,0.3,0.3s0.3-0.1,0.3-0.3S38.1,52.5,37.9,52.5z"/>
	<path class="st0" d="M17.2,46.8c-0.9,0-1.7-0.8-1.7-1.7s0.8-1.7,1.7-1.7s1.7,0.8,1.7,1.7S18.1,46.8,17.2,46.8z M17.2,44.8
		c-0.2,0-0.3,0.1-0.3,0.3s0.1,0.3,0.3,0.3s0.3-0.1,0.3-0.3S17.3,44.8,17.2,44.8z"/>
	<path class="st0" d="M24.1,46.8c-0.9,0-1.7-0.8-1.7-1.7s0.8-1.7,1.7-1.7s1.7,0.8,1.7,1.7S25,46.8,24.1,46.8z M24.1,44.8
		c-0.2,0-0.3,0.1-0.3,0.3s0.1,0.3,0.3,0.3c0.2,0,0.3-0.1,0.3-0.3S24.2,44.8,24.1,44.8z"/>
	<path class="st0" d="M17.2,54.5c-0.9,0-1.7-0.8-1.7-1.7c0-0.9,0.8-1.7,1.7-1.7s1.7,0.8,1.7,1.7C18.8,53.7,18.1,54.5,17.2,54.5z
		 M17.2,52.5c-0.2,0-0.3,0.1-0.3,0.3s0.1,0.3,0.3,0.3s0.3-0.1,0.3-0.3S17.3,52.5,17.2,52.5z"/>
	<path class="st0" d="M24.1,54.5c-0.9,0-1.7-0.8-1.7-1.7c0-0.9,0.8-1.7,1.7-1.7s1.7,0.8,1.7,1.7C25.8,53.7,25,54.5,24.1,54.5z
		 M24.1,52.5c-0.2,0-0.3,0.1-0.3,0.3s0.1,0.3,0.3,0.3c0.2,0,0.3-0.1,0.3-0.3S24.2,52.5,24.1,52.5z"/>
	<path class="st0" d="M44.8,46.8c-0.9,0-1.7-0.8-1.7-1.7s0.8-1.7,1.7-1.7c0.9,0,1.7,0.8,1.7,1.7S45.8,46.8,44.8,46.8z M44.8,44.8
		c-0.2,0-0.3,0.1-0.3,0.3s0.1,0.3,0.3,0.3s0.3-0.1,0.3-0.3S45,44.8,44.8,44.8z"/>
	<polygon class="st0" points="45.8,59 43.8,59 43.8,50.4 52.5,50.4 52.5,52.4 45.8,52.4 	"/>
</g>
</svg>
